<mxfile host="app.diagrams.net" modified="2023-11-14T05:57:22.834Z" agent="Mozilla/5.0 (Windows NT 10.0; Win64; x64) AppleWebKit/537.36 (KHTML, like Gecko) Chrome/116.0.5845.837 YaBrowser/23.9.4.837 Yowser/2.5 Safari/537.36" etag="8dcF6wL0JM4yYrc-ZpAV" version="22.1.0" type="device">
  <diagram name="Страница — 1" id="CXeY5SZwVTgLlCkQZiGW">
    <mxGraphModel dx="1882" dy="1774" grid="1" gridSize="10" guides="1" tooltips="1" connect="1" arrows="1" fold="1" page="1" pageScale="1" pageWidth="827" pageHeight="1169" math="0" shadow="0">
      <root>
        <mxCell id="0" />
        <mxCell id="1" parent="0" />
        <mxCell id="zDsFSdaFNBFYvoVBr4y8-1" value="&lt;p style=&quot;margin:0px;margin-top:4px;text-align:center;&quot;&gt;&lt;i&gt;&amp;lt;&amp;lt;Interface&amp;gt;&amp;gt;&lt;/i&gt;&lt;br&gt;&lt;b&gt;IDrawable&lt;/b&gt;&lt;/p&gt;&lt;hr size=&quot;1&quot;&gt;&lt;p style=&quot;margin:0px;margin-left:4px;&quot;&gt;+ Draw(canvas: ICanvas&amp;amp;):&lt;br&gt;&lt;/p&gt;" style="verticalAlign=top;align=left;overflow=fill;fontSize=12;fontFamily=Helvetica;html=1;whiteSpace=wrap;" parent="1" vertex="1">
          <mxGeometry x="319" y="20" width="190" height="70" as="geometry" />
        </mxCell>
        <mxCell id="zDsFSdaFNBFYvoVBr4y8-2" value="&lt;br&gt;" style="endArrow=block;endSize=16;endFill=0;html=1;rounded=0;entryX=0.168;entryY=1.034;entryDx=0;entryDy=0;entryPerimeter=0;exitX=0.465;exitY=-0.002;exitDx=0;exitDy=0;exitPerimeter=0;" parent="1" source="zDsFSdaFNBFYvoVBr4y8-3" target="zDsFSdaFNBFYvoVBr4y8-1" edge="1">
          <mxGeometry width="160" relative="1" as="geometry">
            <mxPoint x="250" y="160" as="sourcePoint" />
            <mxPoint x="530" y="180" as="targetPoint" />
          </mxGeometry>
        </mxCell>
        <mxCell id="zDsFSdaFNBFYvoVBr4y8-15" value="&lt;br&gt;" style="endArrow=block;endSize=16;endFill=0;html=1;rounded=0;entryX=0.881;entryY=0.993;entryDx=0;entryDy=0;entryPerimeter=0;exitX=0.439;exitY=-0.003;exitDx=0;exitDy=0;exitPerimeter=0;" parent="1" source="zDsFSdaFNBFYvoVBr4y8-13" target="zDsFSdaFNBFYvoVBr4y8-3" edge="1">
          <mxGeometry width="160" relative="1" as="geometry">
            <mxPoint x="236" y="170" as="sourcePoint" />
            <mxPoint x="416" y="102" as="targetPoint" />
          </mxGeometry>
        </mxCell>
        <mxCell id="zDsFSdaFNBFYvoVBr4y8-22" value="&lt;br&gt;" style="endArrow=block;endSize=16;endFill=0;html=1;rounded=0;entryX=0.5;entryY=1;entryDx=0;entryDy=0;exitX=0.553;exitY=-0.003;exitDx=0;exitDy=0;exitPerimeter=0;" parent="1" source="zDsFSdaFNBFYvoVBr4y8-21" target="zDsFSdaFNBFYvoVBr4y8-19" edge="1">
          <mxGeometry width="160" relative="1" as="geometry">
            <mxPoint x="194" y="601" as="sourcePoint" />
            <mxPoint x="170" y="540" as="targetPoint" />
          </mxGeometry>
        </mxCell>
        <mxCell id="zDsFSdaFNBFYvoVBr4y8-3" value="&lt;p style=&quot;margin:0px;margin-top:4px;text-align:center;&quot;&gt;&lt;i&gt;&amp;lt;&amp;lt;Interface&amp;gt;&amp;gt;&lt;/i&gt;&lt;br&gt;&lt;b&gt;IShape&lt;/b&gt;&lt;/p&gt;&lt;hr size=&quot;1&quot;&gt;&lt;p style=&quot;margin:0px;margin-left:4px;&quot;&gt;+ GetFrame(): RectD&lt;br&gt;+ SetFrame(frame: RectD)&lt;/p&gt;&lt;p style=&quot;margin:0px;margin-left:4px;&quot;&gt;+&amp;nbsp;GetType() : string&lt;/p&gt;&lt;p style=&quot;margin:0px;margin-left:4px;&quot;&gt;+&amp;nbsp;GetOutlineStyle() : const IOutlineStyle&amp;amp;&lt;/p&gt;&lt;p style=&quot;margin:0px;margin-left:4px;&quot;&gt;+&amp;nbsp;GetOutlineStyle() : IOutlineStyle&amp;amp;&lt;br&gt;&lt;/p&gt;&lt;p style=&quot;border-color: var(--border-color); margin: 0px 0px 0px 4px;&quot;&gt;+&amp;nbsp;GetFillStyle() : const IStyle&amp;amp;&lt;/p&gt;&lt;p style=&quot;border-color: var(--border-color); margin: 0px 0px 0px 4px;&quot;&gt;+&amp;nbsp;GetFillStyle() : IStyle&amp;amp;&lt;/p&gt;&lt;p style=&quot;border-color: var(--border-color); margin: 0px 0px 0px 4px;&quot;&gt;+&amp;nbsp;GetGroup() : const IGroup*&lt;/p&gt;&lt;p style=&quot;border-color: var(--border-color); margin: 0px 0px 0px 4px;&quot;&gt;+&amp;nbsp;GetGroup() : IGroup*&lt;br&gt;&lt;/p&gt;&lt;p style=&quot;border-color: var(--border-color); margin: 0px 0px 0px 4px;&quot;&gt;IShapePtr = std::shared_ptr&amp;lt;IShape&amp;gt;&lt;br&gt;&lt;/p&gt;" style="verticalAlign=top;align=left;overflow=fill;fontSize=12;fontFamily=Helvetica;html=1;whiteSpace=wrap;" parent="1" vertex="1">
          <mxGeometry x="110" y="160" width="250" height="190" as="geometry" />
        </mxCell>
        <mxCell id="zDsFSdaFNBFYvoVBr4y8-4" value="&lt;p style=&quot;margin:0px;margin-top:4px;text-align:center;&quot;&gt;&lt;b&gt;CShape&lt;/b&gt;&lt;/p&gt;&lt;hr size=&quot;1&quot;&gt;&lt;div style=&quot;height:2px;&quot;&gt;&lt;p style=&quot;border-color: var(--border-color); margin: 0px 0px 0px 4px;&quot;&gt;+ GetFrame(): RectD&lt;br style=&quot;border-color: var(--border-color);&quot;&gt;+ SetFrame(frame: RectD)&lt;/p&gt;&lt;p style=&quot;border-color: var(--border-color); margin: 0px 0px 0px 4px;&quot;&gt;+&amp;nbsp;GetType() : string&lt;/p&gt;&lt;p style=&quot;border-color: var(--border-color); margin: 0px 0px 0px 4px;&quot;&gt;+&amp;nbsp;GetOutlineStyle() : const IOutlineStyle&amp;amp;&lt;/p&gt;&lt;p style=&quot;border-color: var(--border-color); margin: 0px 0px 0px 4px;&quot;&gt;+&amp;nbsp;GetOutlineStyle() : IOutlineStyle&amp;amp;&lt;br style=&quot;border-color: var(--border-color);&quot;&gt;&lt;/p&gt;&lt;p style=&quot;border-color: var(--border-color); margin: 0px 0px 0px 4px;&quot;&gt;+&amp;nbsp;GetFillStyle() : const IStyle&amp;amp;&lt;/p&gt;&lt;p style=&quot;border-color: var(--border-color); margin: 0px 0px 0px 4px;&quot;&gt;+&amp;nbsp;GetFillStyle() : IStyle&amp;amp;&lt;/p&gt;&lt;p style=&quot;border-color: var(--border-color); margin: 0px 0px 0px 4px;&quot;&gt;+&amp;nbsp;GetGroup() : const IGroup*&lt;/p&gt;&lt;p style=&quot;border-color: var(--border-color); margin: 0px 0px 0px 4px;&quot;&gt;+&amp;nbsp;GetGroup() : IGroup*&lt;/p&gt;&lt;p style=&quot;border-color: var(--border-color); margin: 0px 0px 0px 4px;&quot;&gt;- m_rect :&amp;nbsp;RectD&lt;span style=&quot;background-color: initial;&quot;&gt;&amp;nbsp;&lt;/span&gt;&lt;/p&gt;&lt;p style=&quot;border-color: var(--border-color); margin: 0px 0px 0px 4px;&quot;&gt;- m_fillStyle :&amp;nbsp;CFillStyle&lt;span style=&quot;background-color: initial;&quot;&gt;&amp;nbsp;&lt;/span&gt;&lt;/p&gt;&lt;p style=&quot;border-color: var(--border-color); margin: 0px 0px 0px 4px;&quot;&gt;- m_outlineStyle :&amp;nbsp;COutlineStyle&lt;span style=&quot;background-color: initial;&quot;&gt;&amp;nbsp;&lt;/span&gt;&lt;/p&gt;&lt;/div&gt;" style="verticalAlign=top;align=left;overflow=fill;fontSize=12;fontFamily=Helvetica;html=1;whiteSpace=wrap;" parent="1" vertex="1">
          <mxGeometry x="-220" y="200" width="180" height="250" as="geometry" />
        </mxCell>
        <mxCell id="zDsFSdaFNBFYvoVBr4y8-5" value="" style="endArrow=block;dashed=1;endFill=0;endSize=12;html=1;rounded=0;entryX=-0.012;entryY=0.393;entryDx=0;entryDy=0;entryPerimeter=0;exitX=1.008;exitY=0.384;exitDx=0;exitDy=0;exitPerimeter=0;" parent="1" source="zDsFSdaFNBFYvoVBr4y8-4" target="zDsFSdaFNBFYvoVBr4y8-3" edge="1">
          <mxGeometry width="160" relative="1" as="geometry">
            <mxPoint x="-50" y="270" as="sourcePoint" />
            <mxPoint x="110" y="270" as="targetPoint" />
          </mxGeometry>
        </mxCell>
        <mxCell id="zDsFSdaFNBFYvoVBr4y8-7" value="&lt;p style=&quot;margin:0px;margin-top:4px;text-align:center;&quot;&gt;&lt;b&gt;CTriangle&lt;/b&gt;&lt;/p&gt;&lt;hr size=&quot;1&quot;&gt;&lt;div style=&quot;height:2px;&quot;&gt;+ Draw(canvas: ICanvas&amp;amp;):&lt;/div&gt;&lt;div style=&quot;height:2px;&quot;&gt;&lt;br&gt;&lt;/div&gt;&lt;div style=&quot;height:2px;&quot;&gt;&lt;br&gt;&lt;/div&gt;&lt;div style=&quot;height:2px;&quot;&gt;&lt;br&gt;&lt;/div&gt;&lt;div style=&quot;height:2px;&quot;&gt;&lt;br&gt;&lt;/div&gt;&lt;div style=&quot;height:2px;&quot;&gt;&lt;br&gt;&lt;/div&gt;&lt;div style=&quot;height:2px;&quot;&gt;&lt;br&gt;&lt;/div&gt;&lt;div style=&quot;height:2px;&quot;&gt;&lt;br&gt;&lt;/div&gt;&lt;div style=&quot;height:2px;&quot;&gt;&lt;br&gt;&lt;/div&gt;&lt;div style=&quot;height:2px;&quot;&gt;&lt;br&gt;&lt;/div&gt;&lt;div style=&quot;height:2px;&quot;&gt;&lt;br&gt;&lt;/div&gt;&lt;div style=&quot;height:2px;&quot;&gt;&lt;br&gt;&lt;/div&gt;&lt;div style=&quot;height:2px;&quot;&gt;&lt;br&gt;&lt;/div&gt;&lt;div style=&quot;height:2px;&quot;&gt;&lt;br&gt;&lt;/div&gt;&lt;div style=&quot;height:2px;&quot;&gt;&lt;br&gt;&lt;/div&gt;&lt;div style=&quot;height:2px;&quot;&gt;+&amp;nbsp;GetType() : string&lt;br&gt;&lt;/div&gt;" style="verticalAlign=top;align=left;overflow=fill;fontSize=12;fontFamily=Helvetica;html=1;whiteSpace=wrap;" parent="1" vertex="1">
          <mxGeometry x="-483" y="240" width="140" height="90" as="geometry" />
        </mxCell>
        <mxCell id="zDsFSdaFNBFYvoVBr4y8-8" value="&lt;p style=&quot;margin:0px;margin-top:4px;text-align:center;&quot;&gt;&lt;b&gt;CEllipse&lt;/b&gt;&lt;/p&gt;&lt;hr size=&quot;1&quot;&gt;&lt;div style=&quot;height:2px;&quot;&gt;+ Draw(canvas: ICanvas&amp;amp;):&lt;/div&gt;&lt;div style=&quot;height:2px;&quot;&gt;&lt;br&gt;&lt;/div&gt;&lt;div style=&quot;height:2px;&quot;&gt;&lt;br&gt;&lt;/div&gt;&lt;div style=&quot;height:2px;&quot;&gt;&lt;br&gt;&lt;/div&gt;&lt;div style=&quot;height:2px;&quot;&gt;&lt;br&gt;&lt;/div&gt;&lt;div style=&quot;height:2px;&quot;&gt;&lt;br&gt;&lt;/div&gt;&lt;div style=&quot;height:2px;&quot;&gt;&lt;br&gt;&lt;/div&gt;&lt;div style=&quot;height:2px;&quot;&gt;&lt;br&gt;&lt;/div&gt;&lt;div style=&quot;height:2px;&quot;&gt;&lt;br&gt;&lt;/div&gt;&lt;div style=&quot;height:2px;&quot;&gt;&lt;br&gt;&lt;/div&gt;&lt;div style=&quot;height:2px;&quot;&gt;&lt;br&gt;&lt;/div&gt;&lt;div style=&quot;height:2px;&quot;&gt;&lt;br&gt;&lt;/div&gt;&lt;div style=&quot;height:2px;&quot;&gt;&lt;br&gt;&lt;/div&gt;&lt;div style=&quot;height:2px;&quot;&gt;&lt;br&gt;&lt;/div&gt;&lt;div style=&quot;height:2px;&quot;&gt;&lt;br&gt;&lt;/div&gt;&lt;div style=&quot;height:2px;&quot;&gt;+&amp;nbsp;GetType() : string&lt;br&gt;&lt;/div&gt;" style="verticalAlign=top;align=left;overflow=fill;fontSize=12;fontFamily=Helvetica;html=1;whiteSpace=wrap;" parent="1" vertex="1">
          <mxGeometry x="-530" y="370" width="140" height="90" as="geometry" />
        </mxCell>
        <mxCell id="zDsFSdaFNBFYvoVBr4y8-9" value="&lt;p style=&quot;margin:0px;margin-top:4px;text-align:center;&quot;&gt;&lt;b&gt;CRectangle&lt;/b&gt;&lt;/p&gt;&lt;hr size=&quot;1&quot;&gt;&lt;div style=&quot;height:2px;&quot;&gt;+ Draw(canvas: ICanvas&amp;amp;):&lt;/div&gt;&lt;div style=&quot;height:2px;&quot;&gt;&lt;br&gt;&lt;/div&gt;&lt;div style=&quot;height:2px;&quot;&gt;&lt;br&gt;&lt;/div&gt;&lt;div style=&quot;height:2px;&quot;&gt;&lt;br&gt;&lt;/div&gt;&lt;div style=&quot;height:2px;&quot;&gt;&lt;br&gt;&lt;/div&gt;&lt;div style=&quot;height:2px;&quot;&gt;&lt;br&gt;&lt;/div&gt;&lt;div style=&quot;height:2px;&quot;&gt;&lt;br&gt;&lt;/div&gt;&lt;div style=&quot;height:2px;&quot;&gt;&lt;br&gt;&lt;/div&gt;&lt;div style=&quot;height:2px;&quot;&gt;&lt;br&gt;&lt;/div&gt;&lt;div style=&quot;height:2px;&quot;&gt;&lt;br&gt;&lt;/div&gt;&lt;div style=&quot;height:2px;&quot;&gt;&lt;br&gt;&lt;/div&gt;&lt;div style=&quot;height:2px;&quot;&gt;&lt;br&gt;&lt;/div&gt;&lt;div style=&quot;height:2px;&quot;&gt;&lt;br&gt;&lt;/div&gt;&lt;div style=&quot;height:2px;&quot;&gt;&lt;br&gt;&lt;/div&gt;&lt;div style=&quot;height:2px;&quot;&gt;&lt;br&gt;&lt;/div&gt;&lt;div style=&quot;height:2px;&quot;&gt;+&amp;nbsp;GetType() : string&lt;br&gt;&lt;/div&gt;" style="verticalAlign=top;align=left;overflow=fill;fontSize=12;fontFamily=Helvetica;html=1;whiteSpace=wrap;" parent="1" vertex="1">
          <mxGeometry x="-450" y="50" width="140" height="90" as="geometry" />
        </mxCell>
        <mxCell id="zDsFSdaFNBFYvoVBr4y8-10" value="Extends" style="endArrow=block;endSize=16;endFill=0;html=1;rounded=0;entryX=0.25;entryY=0;entryDx=0;entryDy=0;exitX=1;exitY=0.5;exitDx=0;exitDy=0;" parent="1" source="zDsFSdaFNBFYvoVBr4y8-9" target="zDsFSdaFNBFYvoVBr4y8-4" edge="1">
          <mxGeometry width="160" relative="1" as="geometry">
            <mxPoint x="-350" y="90" as="sourcePoint" />
            <mxPoint x="-190" y="90" as="targetPoint" />
          </mxGeometry>
        </mxCell>
        <mxCell id="zDsFSdaFNBFYvoVBr4y8-11" value="Extends" style="endArrow=block;endSize=16;endFill=0;html=1;rounded=0;entryX=-0.012;entryY=0.598;entryDx=0;entryDy=0;exitX=1;exitY=0.5;exitDx=0;exitDy=0;entryPerimeter=0;" parent="1" source="zDsFSdaFNBFYvoVBr4y8-8" target="zDsFSdaFNBFYvoVBr4y8-4" edge="1">
          <mxGeometry width="160" relative="1" as="geometry">
            <mxPoint x="-300" y="105" as="sourcePoint" />
            <mxPoint x="-165" y="220" as="targetPoint" />
          </mxGeometry>
        </mxCell>
        <mxCell id="zDsFSdaFNBFYvoVBr4y8-12" value="Extends" style="endArrow=block;endSize=16;endFill=0;html=1;rounded=0;entryX=-0.017;entryY=0.214;entryDx=0;entryDy=0;exitX=1;exitY=0.5;exitDx=0;exitDy=0;entryPerimeter=0;" parent="1" source="zDsFSdaFNBFYvoVBr4y8-7" target="zDsFSdaFNBFYvoVBr4y8-4" edge="1">
          <mxGeometry width="160" relative="1" as="geometry">
            <mxPoint x="-360" y="170" as="sourcePoint" />
            <mxPoint x="-225" y="285" as="targetPoint" />
          </mxGeometry>
        </mxCell>
        <mxCell id="zDsFSdaFNBFYvoVBr4y8-13" value="&lt;p style=&quot;margin:0px;margin-top:4px;text-align:center;&quot;&gt;&lt;i&gt;&amp;lt;&amp;lt;Interface&amp;gt;&amp;gt;&lt;/i&gt;&lt;br&gt;&lt;b&gt;IGroup&lt;/b&gt;&lt;/p&gt;&lt;hr size=&quot;1&quot;&gt;&lt;p style=&quot;margin:0px;margin-left:4px;&quot;&gt;+ GetShapesCount() : size_t&amp;nbsp;&lt;br&gt;+ GetShapeAtIndex(idx : size_t) : IShapedPtr&lt;/p&gt;&lt;p style=&quot;margin:0px;margin-left:4px;&quot;&gt;+&amp;nbsp;InsertShape(shape: IShapedPtr, idx: size_t)&lt;/p&gt;&lt;p style=&quot;margin:0px;margin-left:4px;&quot;&gt;+&amp;nbsp;RemoveShape(size_t idx)&lt;/p&gt;" style="verticalAlign=top;align=left;overflow=fill;fontSize=12;fontFamily=Helvetica;html=1;whiteSpace=wrap;" parent="1" vertex="1">
          <mxGeometry x="240" y="400" width="260" height="120" as="geometry" />
        </mxCell>
        <mxCell id="zDsFSdaFNBFYvoVBr4y8-16" value="&lt;p style=&quot;margin:0px;margin-top:4px;text-align:center;&quot;&gt;&lt;b&gt;CGroup&lt;/b&gt;&lt;/p&gt;&lt;hr size=&quot;1&quot;&gt;&lt;div style=&quot;height:2px;&quot;&gt;&lt;p style=&quot;border-color: var(--border-color); margin: 0px 0px 0px 4px;&quot;&gt;+ GetShapesCount() : size_t&amp;nbsp;&lt;br style=&quot;border-color: var(--border-color);&quot;&gt;+ GetShapeAtIndex(idx : size_t) : IShapedPtr&lt;/p&gt;&lt;p style=&quot;border-color: var(--border-color); margin: 0px 0px 0px 4px;&quot;&gt;+&amp;nbsp;InsertShape(shape: IShapedPtr, idx: size_t)&lt;/p&gt;&lt;p style=&quot;border-color: var(--border-color); margin: 0px 0px 0px 4px;&quot;&gt;+&amp;nbsp;RemoveShape(size_t idx)&lt;/p&gt;&lt;p style=&quot;border-color: var(--border-color); margin: 0px 0px 0px 4px;&quot;&gt;+ GetFrame(): RectD&lt;br style=&quot;border-color: var(--border-color);&quot;&gt;+ SetFrame(frame: RectD)&lt;/p&gt;&lt;p style=&quot;border-color: var(--border-color); margin: 0px 0px 0px 4px;&quot;&gt;+&amp;nbsp;GetType() : string&lt;/p&gt;&lt;p style=&quot;border-color: var(--border-color); margin: 0px 0px 0px 4px;&quot;&gt;+&amp;nbsp;GetOutlineStyle() : const IOutlineStyle&amp;amp;&lt;/p&gt;&lt;p style=&quot;border-color: var(--border-color); margin: 0px 0px 0px 4px;&quot;&gt;+&amp;nbsp;GetOutlineStyle() : IOutlineStyle&amp;amp;&lt;br style=&quot;border-color: var(--border-color);&quot;&gt;&lt;/p&gt;&lt;p style=&quot;border-color: var(--border-color); margin: 0px 0px 0px 4px;&quot;&gt;+&amp;nbsp;GetFillStyle() : const IStyle&amp;amp;&lt;/p&gt;&lt;p style=&quot;border-color: var(--border-color); margin: 0px 0px 0px 4px;&quot;&gt;+&amp;nbsp;GetFillStyle() : IStyle&amp;amp;&lt;/p&gt;&lt;p style=&quot;border-color: var(--border-color); margin: 0px 0px 0px 4px;&quot;&gt;+&amp;nbsp;GetGroup() : const IGroup*&lt;/p&gt;&lt;p style=&quot;border-color: var(--border-color); margin: 0px 0px 0px 4px;&quot;&gt;+&amp;nbsp;GetGroup() : IGroup*&lt;/p&gt;&lt;p style=&quot;border-color: var(--border-color); margin: 0px 0px 0px 4px;&quot;&gt;+&amp;nbsp;DoNewFrameForGroup()&lt;/p&gt;&lt;p style=&quot;border-color: var(--border-color); margin: 0px 0px 0px 4px;&quot;&gt;+&amp;nbsp;CheckOutOfShapesRange(size_t idx)&lt;/p&gt;&lt;p style=&quot;border-color: var(--border-color); margin: 0px 0px 0px 4px;&quot;&gt;- m_rect : RectD&lt;/p&gt;&lt;p style=&quot;border-color: var(--border-color); margin: 0px 0px 0px 4px;&quot;&gt;-&amp;nbsp;m_shapes:&amp;nbsp;vector&amp;lt;IShapePtr&amp;gt;&lt;/p&gt;&lt;p style=&quot;border-color: var(--border-color); margin: 0px 0px 0px 4px;&quot;&gt;- m_fillStyle :&amp;nbsp;CGroupFillStyle&amp;nbsp;&lt;/p&gt;&lt;p style=&quot;border-color: var(--border-color); margin: 0px 0px 0px 4px;&quot;&gt;- m_outlineStyle :&amp;nbsp;CGroup&lt;span style=&quot;background-color: initial;&quot;&gt;OutlineStyle&lt;/span&gt;&lt;/p&gt;&lt;/div&gt;" style="verticalAlign=top;align=left;overflow=fill;fontSize=12;fontFamily=Helvetica;html=1;whiteSpace=wrap;" parent="1" vertex="1">
          <mxGeometry x="240" y="610" width="310" height="310" as="geometry" />
        </mxCell>
        <mxCell id="zDsFSdaFNBFYvoVBr4y8-18" value="" style="endArrow=block;dashed=1;endFill=0;endSize=12;html=1;rounded=0;entryX=0.5;entryY=1;entryDx=0;entryDy=0;exitX=0.5;exitY=0;exitDx=0;exitDy=0;" parent="1" source="zDsFSdaFNBFYvoVBr4y8-16" target="zDsFSdaFNBFYvoVBr4y8-13" edge="1">
          <mxGeometry width="160" relative="1" as="geometry">
            <mxPoint x="280" y="820" as="sourcePoint" />
            <mxPoint x="440" y="820" as="targetPoint" />
          </mxGeometry>
        </mxCell>
        <mxCell id="zDsFSdaFNBFYvoVBr4y8-42" value="" style="endArrow=block;dashed=1;endFill=0;endSize=12;html=1;rounded=0;entryX=0.417;entryY=0.996;entryDx=0;entryDy=0;exitX=0.416;exitY=-0.017;exitDx=0;exitDy=0;entryPerimeter=0;exitPerimeter=0;" parent="1" source="zDsFSdaFNBFYvoVBr4y8-39" target="zDsFSdaFNBFYvoVBr4y8-37" edge="1">
          <mxGeometry width="160" relative="1" as="geometry">
            <mxPoint x="645" y="370" as="sourcePoint" />
            <mxPoint x="620" y="280" as="targetPoint" />
          </mxGeometry>
        </mxCell>
        <mxCell id="zDsFSdaFNBFYvoVBr4y8-19" value="&lt;p style=&quot;margin:0px;margin-top:4px;text-align:center;&quot;&gt;&lt;i&gt;&amp;lt;&amp;lt;Interface&amp;gt;&amp;gt;&lt;/i&gt;&lt;br&gt;&lt;b&gt;IStyle&lt;/b&gt;&lt;/p&gt;&lt;hr size=&quot;1&quot;&gt;&lt;p style=&quot;margin:0px;margin-left:4px;&quot;&gt;+ GetColor() : optional&amp;lt;RGBAcolor&amp;gt;&lt;/p&gt;&lt;p style=&quot;margin:0px;margin-left:4px;&quot;&gt;+ SetColor(rgbaColor : const RGBAColor&amp;amp;)&lt;/p&gt;&lt;p style=&quot;margin:0px;margin-left:4px;&quot;&gt;FuncWorksWithStyles = std::function&amp;lt;void(IStyle&amp;amp;)&amp;gt;;&lt;/p&gt;&lt;p style=&quot;margin:0px;margin-left:4px;&quot;&gt;StyleEnumerator = std::function&amp;lt;void(FuncWorksWithStyles)&amp;gt;;&lt;/p&gt;" style="verticalAlign=top;align=left;overflow=fill;fontSize=12;fontFamily=Helvetica;html=1;whiteSpace=wrap;" parent="1" vertex="1">
          <mxGeometry x="-180" y="500" width="380" height="120" as="geometry" />
        </mxCell>
        <mxCell id="zDsFSdaFNBFYvoVBr4y8-20" value="Use" style="endArrow=open;endSize=12;dashed=1;html=1;rounded=0;entryX=0.474;entryY=-0.022;entryDx=0;entryDy=0;entryPerimeter=0;exitX=0.286;exitY=0.998;exitDx=0;exitDy=0;exitPerimeter=0;" parent="1" source="zDsFSdaFNBFYvoVBr4y8-3" target="zDsFSdaFNBFYvoVBr4y8-19" edge="1">
          <mxGeometry width="160" relative="1" as="geometry">
            <mxPoint x="190" y="390" as="sourcePoint" />
            <mxPoint x="260" y="440" as="targetPoint" />
          </mxGeometry>
        </mxCell>
        <mxCell id="zDsFSdaFNBFYvoVBr4y8-23" value="Use" style="endArrow=open;endSize=12;dashed=1;html=1;rounded=0;entryX=0.959;entryY=-0.003;entryDx=0;entryDy=0;entryPerimeter=0;exitX=0.404;exitY=1.011;exitDx=0;exitDy=0;exitPerimeter=0;edgeStyle=orthogonalEdgeStyle;" parent="1" source="zDsFSdaFNBFYvoVBr4y8-3" target="zDsFSdaFNBFYvoVBr4y8-21" edge="1">
          <mxGeometry width="160" relative="1" as="geometry">
            <mxPoint x="192" y="350" as="sourcePoint" />
            <mxPoint x="30" y="507" as="targetPoint" />
            <Array as="points">
              <mxPoint x="211" y="440" />
              <mxPoint x="230" y="440" />
              <mxPoint x="230" y="660" />
              <mxPoint x="194" y="660" />
            </Array>
          </mxGeometry>
        </mxCell>
        <mxCell id="zDsFSdaFNBFYvoVBr4y8-21" value="&lt;p style=&quot;margin:0px;margin-top:4px;text-align:center;&quot;&gt;&lt;i&gt;&amp;lt;&amp;lt;Interface&amp;gt;&amp;gt;&lt;/i&gt;&lt;br&gt;&lt;b&gt;IOutlineStyle&lt;/b&gt;&lt;/p&gt;&lt;hr size=&quot;1&quot;&gt;&lt;p style=&quot;margin:0px;margin-left:4px;&quot;&gt;+ GetThickness() : size_&lt;br&gt;+ SetThickess(size_t thichness)&lt;/p&gt;&lt;p style=&quot;margin:0px;margin-left:4px;&quot;&gt;FuncWorksWithOutlineStyles = std::function&amp;lt;void(IOutlineStyle&amp;amp;)&amp;gt;;&lt;/p&gt;&lt;p style=&quot;margin:0px;margin-left:4px;&quot;&gt;OutlineStyleEnumerator = std::function&amp;lt;void(FuncWorksWithOutlineStyles)&amp;gt;;&lt;/p&gt;" style="verticalAlign=top;align=left;overflow=fill;fontSize=12;fontFamily=Helvetica;html=1;whiteSpace=wrap;" parent="1" vertex="1">
          <mxGeometry x="-180" y="760" width="390" height="130" as="geometry" />
        </mxCell>
        <mxCell id="zDsFSdaFNBFYvoVBr4y8-25" value="&lt;p style=&quot;margin:0px;margin-top:4px;text-align:center;&quot;&gt;&lt;b&gt;CFillStyle&lt;/b&gt;&lt;/p&gt;&lt;hr size=&quot;1&quot;&gt;&lt;div style=&quot;height:2px;&quot;&gt;&lt;p style=&quot;border-color: var(--border-color); margin: 0px 0px 0px 4px;&quot;&gt;+ GetColor() : optional&amp;lt;RGBAcolor&amp;gt;&lt;/p&gt;&lt;p style=&quot;border-color: var(--border-color); margin: 0px 0px 0px 4px;&quot;&gt;+ SetColor(rgbaColor : const RGBAColor&amp;amp;)&lt;/p&gt;&lt;p style=&quot;border-color: var(--border-color); margin: 0px 0px 0px 4px;&quot;&gt;-&amp;nbsp;m_color :&amp;nbsp;optional&amp;lt;RGBAColor&amp;gt;&lt;/p&gt;&lt;/div&gt;" style="verticalAlign=top;align=left;overflow=fill;fontSize=12;fontFamily=Helvetica;html=1;whiteSpace=wrap;" parent="1" vertex="1">
          <mxGeometry x="-680" y="585" width="310" height="105" as="geometry" />
        </mxCell>
        <mxCell id="zDsFSdaFNBFYvoVBr4y8-31" value="&lt;p style=&quot;margin:0px;margin-top:4px;text-align:center;&quot;&gt;&lt;b&gt;CGroupFillStyle&lt;/b&gt;&lt;/p&gt;&lt;hr size=&quot;1&quot;&gt;&lt;div style=&quot;height:2px;&quot;&gt;&lt;p style=&quot;border-color: var(--border-color); margin: 0px 0px 0px 4px;&quot;&gt;+ GetColor() : optional&amp;lt;RGBAcolor&amp;gt;&lt;/p&gt;&lt;p style=&quot;border-color: var(--border-color); margin: 0px 0px 0px 4px;&quot;&gt;+ SetColor(rgbaColor : const RGBAColor&amp;amp;)&lt;/p&gt;&lt;p style=&quot;border-color: var(--border-color); margin: 0px 0px 0px 4px;&quot;&gt;-&amp;nbsp;m_enumerator:&amp;nbsp;OutlineStyleEnumerator&lt;/p&gt;&lt;/div&gt;" style="verticalAlign=top;align=left;overflow=fill;fontSize=12;fontFamily=Helvetica;html=1;whiteSpace=wrap;" parent="1" vertex="1">
          <mxGeometry x="-413" y="1010" width="310" height="105" as="geometry" />
        </mxCell>
        <mxCell id="zDsFSdaFNBFYvoVBr4y8-29" value="&lt;p style=&quot;margin:0px;margin-top:4px;text-align:center;&quot;&gt;&lt;b&gt;COutlineStyle&lt;/b&gt;&lt;/p&gt;&lt;hr size=&quot;1&quot;&gt;&lt;div style=&quot;height:2px;&quot;&gt;&lt;p style=&quot;border-color: var(--border-color); margin: 0px 0px 0px 4px;&quot;&gt;+ GetColor() : optional&amp;lt;RGBAcolor&amp;gt;&lt;/p&gt;&lt;p style=&quot;border-color: var(--border-color); margin: 0px 0px 0px 4px;&quot;&gt;+ SetColor(rgbaColor : const RGBAColor&amp;amp;)&lt;/p&gt;&lt;p style=&quot;border-color: var(--border-color); margin: 0px 0px 0px 4px;&quot;&gt;+ GetThickness() : size_&lt;br style=&quot;border-color: var(--border-color);&quot;&gt;+ SetThickess(size_t thichness)&lt;br&gt;&lt;/p&gt;&lt;p style=&quot;border-color: var(--border-color); margin: 0px 0px 0px 4px;&quot;&gt;-&amp;nbsp;m_color :&amp;nbsp;optional&amp;lt;RGBAColor&amp;gt;&lt;/p&gt;&lt;p style=&quot;border-color: var(--border-color); margin: 0px 0px 0px 4px;&quot;&gt;- m_thickness : size_t&lt;/p&gt;&lt;/div&gt;" style="verticalAlign=top;align=left;overflow=fill;fontSize=12;fontFamily=Helvetica;html=1;whiteSpace=wrap;" parent="1" vertex="1">
          <mxGeometry x="-568" y="760" width="310" height="130" as="geometry" />
        </mxCell>
        <mxCell id="zDsFSdaFNBFYvoVBr4y8-34" value="&lt;p style=&quot;margin:0px;margin-top:4px;text-align:center;&quot;&gt;&lt;b&gt;CGroupOutlineStyle&lt;/b&gt;&lt;/p&gt;&lt;hr size=&quot;1&quot;&gt;&lt;div style=&quot;height:2px;&quot;&gt;&lt;p style=&quot;border-color: var(--border-color); margin: 0px 0px 0px 4px;&quot;&gt;+ GetColor() : optional&amp;lt;RGBAcolor&amp;gt;&lt;/p&gt;&lt;p style=&quot;border-color: var(--border-color); margin: 0px 0px 0px 4px;&quot;&gt;+ SetColor(rgbaColor : const RGBAColor&amp;amp;)&lt;/p&gt;&lt;p style=&quot;border-color: var(--border-color); margin: 0px 0px 0px 4px;&quot;&gt;+ GetThickness() : size_&lt;br style=&quot;border-color: var(--border-color);&quot;&gt;+ SetThickess(size_t thichness)&lt;br&gt;&lt;/p&gt;&lt;p style=&quot;border-color: var(--border-color); margin: 0px 0px 0px 4px;&quot;&gt;-&amp;nbsp;m_enumerator:&amp;nbsp;StyleEnumerator&lt;br&gt;&lt;/p&gt;&lt;/div&gt;" style="verticalAlign=top;align=left;overflow=fill;fontSize=12;fontFamily=Helvetica;html=1;whiteSpace=wrap;" parent="1" vertex="1">
          <mxGeometry x="20" y="1060" width="310" height="130" as="geometry" />
        </mxCell>
        <mxCell id="zDsFSdaFNBFYvoVBr4y8-26" value="" style="endArrow=block;dashed=1;endFill=0;endSize=12;html=1;rounded=0;entryX=0;entryY=0.5;entryDx=0;entryDy=0;exitX=1.006;exitY=0.337;exitDx=0;exitDy=0;exitPerimeter=0;" parent="1" source="zDsFSdaFNBFYvoVBr4y8-25" target="zDsFSdaFNBFYvoVBr4y8-19" edge="1">
          <mxGeometry width="160" relative="1" as="geometry">
            <mxPoint x="-420" y="559.5" as="sourcePoint" />
            <mxPoint x="-260" y="559.5" as="targetPoint" />
          </mxGeometry>
        </mxCell>
        <mxCell id="zDsFSdaFNBFYvoVBr4y8-30" value="" style="endArrow=block;dashed=1;endFill=0;endSize=12;html=1;rounded=0;entryX=0;entryY=0.5;entryDx=0;entryDy=0;exitX=1.003;exitY=0.342;exitDx=0;exitDy=0;exitPerimeter=0;" parent="1" source="zDsFSdaFNBFYvoVBr4y8-29" target="zDsFSdaFNBFYvoVBr4y8-21" edge="1">
          <mxGeometry width="160" relative="1" as="geometry">
            <mxPoint x="-310" y="690" as="sourcePoint" />
            <mxPoint x="-122" y="630" as="targetPoint" />
          </mxGeometry>
        </mxCell>
        <mxCell id="zDsFSdaFNBFYvoVBr4y8-27" value="" style="endArrow=diamondThin;endFill=1;endSize=24;html=1;rounded=0;entryX=0.43;entryY=1.006;entryDx=0;entryDy=0;entryPerimeter=0;exitX=0.807;exitY=-0.003;exitDx=0;exitDy=0;exitPerimeter=0;edgeStyle=orthogonalEdgeStyle;" parent="1" source="zDsFSdaFNBFYvoVBr4y8-29" target="zDsFSdaFNBFYvoVBr4y8-4" edge="1">
          <mxGeometry width="160" relative="1" as="geometry">
            <mxPoint x="-300" y="470" as="sourcePoint" />
            <mxPoint x="-140" y="470" as="targetPoint" />
            <Array as="points">
              <mxPoint x="-318" y="605" />
              <mxPoint x="-230" y="605" />
              <mxPoint x="-230" y="480" />
              <mxPoint x="-143" y="480" />
            </Array>
          </mxGeometry>
        </mxCell>
        <mxCell id="zDsFSdaFNBFYvoVBr4y8-28" value="" style="endArrow=diamondThin;endFill=1;endSize=24;html=1;rounded=0;entryX=0.003;entryY=0.84;entryDx=0;entryDy=0;entryPerimeter=0;exitX=0.62;exitY=-0.019;exitDx=0;exitDy=0;exitPerimeter=0;" parent="1" source="zDsFSdaFNBFYvoVBr4y8-25" target="zDsFSdaFNBFYvoVBr4y8-4" edge="1">
          <mxGeometry width="160" relative="1" as="geometry">
            <mxPoint x="-300" y="470" as="sourcePoint" />
            <mxPoint x="-140" y="470" as="targetPoint" />
          </mxGeometry>
        </mxCell>
        <mxCell id="zDsFSdaFNBFYvoVBr4y8-32" value="" style="endArrow=block;dashed=1;endFill=0;endSize=12;html=1;rounded=0;entryX=0.033;entryY=0.99;entryDx=0;entryDy=0;entryPerimeter=0;exitX=0.5;exitY=0;exitDx=0;exitDy=0;" parent="1" source="zDsFSdaFNBFYvoVBr4y8-31" target="zDsFSdaFNBFYvoVBr4y8-19" edge="1">
          <mxGeometry width="160" relative="1" as="geometry">
            <mxPoint x="-130" y="890" as="sourcePoint" />
            <mxPoint x="30" y="890" as="targetPoint" />
          </mxGeometry>
        </mxCell>
        <mxCell id="zDsFSdaFNBFYvoVBr4y8-33" value="" style="endArrow=diamondThin;endFill=1;endSize=24;html=1;rounded=0;entryX=-0.003;entryY=0.96;entryDx=0;entryDy=0;entryPerimeter=0;exitX=0.75;exitY=0;exitDx=0;exitDy=0;" parent="1" source="zDsFSdaFNBFYvoVBr4y8-31" target="zDsFSdaFNBFYvoVBr4y8-16" edge="1">
          <mxGeometry width="160" relative="1" as="geometry">
            <mxPoint x="-20" y="850" as="sourcePoint" />
            <mxPoint x="140" y="850" as="targetPoint" />
          </mxGeometry>
        </mxCell>
        <mxCell id="zDsFSdaFNBFYvoVBr4y8-36" value="" style="endArrow=diamondThin;endFill=1;endSize=24;html=1;rounded=0;entryX=0.306;entryY=1.006;entryDx=0;entryDy=0;entryPerimeter=0;exitX=0.854;exitY=0.022;exitDx=0;exitDy=0;exitPerimeter=0;" parent="1" source="zDsFSdaFNBFYvoVBr4y8-34" target="zDsFSdaFNBFYvoVBr4y8-16" edge="1">
          <mxGeometry width="160" relative="1" as="geometry">
            <mxPoint x="-170" y="1020" as="sourcePoint" />
            <mxPoint x="249" y="918" as="targetPoint" />
          </mxGeometry>
        </mxCell>
        <mxCell id="zDsFSdaFNBFYvoVBr4y8-35" value="" style="endArrow=block;dashed=1;endFill=0;endSize=12;html=1;rounded=0;entryX=0.5;entryY=1;entryDx=0;entryDy=0;exitX=0.368;exitY=-0.022;exitDx=0;exitDy=0;exitPerimeter=0;" parent="1" source="zDsFSdaFNBFYvoVBr4y8-34" target="zDsFSdaFNBFYvoVBr4y8-21" edge="1">
          <mxGeometry width="160" relative="1" as="geometry">
            <mxPoint x="-130" y="990" as="sourcePoint" />
            <mxPoint x="30" y="990" as="targetPoint" />
          </mxGeometry>
        </mxCell>
        <mxCell id="zDsFSdaFNBFYvoVBr4y8-37" value="&lt;p style=&quot;margin:0px;margin-top:4px;text-align:center;&quot;&gt;&lt;i&gt;&amp;lt;&amp;lt;Interface&amp;gt;&amp;gt;&lt;/i&gt;&lt;br&gt;&lt;b&gt;ICanvas&lt;/b&gt;&lt;/p&gt;&lt;hr size=&quot;1&quot;&gt;&lt;p style=&quot;margin:0px;margin-left:4px;&quot;&gt;+ SetLineColor(color : RGBAColor)&lt;br&gt;+ FillPolygon(points : vector&amp;lt;PointD&amp;gt;, color : RGBAColor)&lt;/p&gt;&lt;p style=&quot;margin:0px;margin-left:4px;&quot;&gt;+&amp;nbsp;MoveTo(PointD to)&lt;/p&gt;&lt;p style=&quot;margin:0px;margin-left:4px;&quot;&gt;+&amp;nbsp;LineTo(PointD to)&lt;/p&gt;&lt;p style=&quot;margin:0px;margin-left:4px;&quot;&gt;+&amp;nbsp;&amp;nbsp;SetThickessLine(size_t thickness)&lt;/p&gt;&lt;p style=&quot;margin:0px;margin-left:4px;&quot;&gt;+&amp;nbsp;DrawEllipse(leftTop: PointD, width : double, height: double)&lt;/p&gt;&lt;p style=&quot;margin:0px;margin-left:4px;&quot;&gt;+&amp;nbsp;FillEllipse(leftTop: PointD, width : double, height: double, color : RGBAcolor)&lt;br&gt;&lt;/p&gt;" style="verticalAlign=top;align=left;overflow=fill;fontSize=12;fontFamily=Helvetica;html=1;whiteSpace=wrap;" parent="1" vertex="1">
          <mxGeometry x="560" y="120" width="420" height="160" as="geometry" />
        </mxCell>
        <mxCell id="zDsFSdaFNBFYvoVBr4y8-38" value="Use" style="endArrow=open;endSize=12;dashed=1;html=1;rounded=0;entryX=0;entryY=0.591;entryDx=0;entryDy=0;entryPerimeter=0;exitX=0.623;exitY=1.031;exitDx=0;exitDy=0;exitPerimeter=0;" parent="1" source="zDsFSdaFNBFYvoVBr4y8-1" target="zDsFSdaFNBFYvoVBr4y8-37" edge="1">
          <mxGeometry width="160" relative="1" as="geometry">
            <mxPoint x="420" y="260" as="sourcePoint" />
            <mxPoint x="580" y="260" as="targetPoint" />
          </mxGeometry>
        </mxCell>
        <mxCell id="zDsFSdaFNBFYvoVBr4y8-39" value="&lt;p style=&quot;margin:0px;margin-top:4px;text-align:center;&quot;&gt;&lt;b&gt;CSvgCanvas&lt;/b&gt;&lt;/p&gt;&lt;hr size=&quot;1&quot;&gt;&lt;div style=&quot;height:2px;&quot;&gt;&lt;p style=&quot;border-color: var(--border-color); margin: 0px 0px 0px 4px;&quot;&gt;&lt;span style=&quot;background-color: initial;&quot;&gt;+ SetLineColor(color : RGBAColor)&lt;/span&gt;&lt;br&gt;&lt;/p&gt;&lt;p style=&quot;border-color: var(--border-color); margin: 0px 0px 0px 4px;&quot;&gt;+ FillPolygon(points : vector&amp;lt;PointD&amp;gt;, color : RGBAColor)&lt;/p&gt;&lt;p style=&quot;border-color: var(--border-color); margin: 0px 0px 0px 4px;&quot;&gt;+&amp;nbsp;MoveTo(PointD to)&lt;/p&gt;&lt;p style=&quot;border-color: var(--border-color); margin: 0px 0px 0px 4px;&quot;&gt;+&amp;nbsp;LineTo(PointD to)&lt;/p&gt;&lt;p style=&quot;border-color: var(--border-color); margin: 0px 0px 0px 4px;&quot;&gt;+&amp;nbsp;&amp;nbsp;SetThickessLine(size_t thickness)&lt;/p&gt;&lt;p style=&quot;border-color: var(--border-color); margin: 0px 0px 0px 4px;&quot;&gt;+&amp;nbsp;DrawEllipse(leftTop: PointD, width : double, height: double)&lt;/p&gt;&lt;p style=&quot;border-color: var(--border-color); margin: 0px 0px 0px 4px;&quot;&gt;+&amp;nbsp;FillEllipse(leftTop: PointD, width : double, height: double, color : RGBAcolor)&lt;/p&gt;&lt;p style=&quot;border-color: var(--border-color); margin: 0px 0px 0px 4px;&quot;&gt;- m_drawingPenCoord : PointD&lt;/p&gt;&lt;p style=&quot;border-color: var(--border-color); margin: 0px 0px 0px 4px;&quot;&gt;- m_outlineColor : RGBAcolor&lt;/p&gt;&lt;p style=&quot;border-color: var(--border-color); margin: 0px 0px 0px 4px;&quot;&gt;- m_output :&amp;nbsp;stringstream&lt;/p&gt;&lt;p style=&quot;border-color: var(--border-color); margin: 0px 0px 0px 4px;&quot;&gt;- m_thickness : size_t&lt;/p&gt;&lt;/div&gt;" style="verticalAlign=top;align=left;overflow=fill;fontSize=12;fontFamily=Helvetica;html=1;whiteSpace=wrap;" parent="1" vertex="1">
          <mxGeometry x="650" y="395" width="430" height="190" as="geometry" />
        </mxCell>
        <mxCell id="zDsFSdaFNBFYvoVBr4y8-44" value="CSlide" style="swimlane;fontStyle=0;childLayout=stackLayout;horizontal=1;startSize=26;fillColor=none;horizontalStack=0;resizeParent=1;resizeParentMax=0;resizeLast=0;collapsible=1;marginBottom=0;whiteSpace=wrap;html=1;" parent="1" vertex="1">
          <mxGeometry x="-103" y="-242" width="260" height="280" as="geometry" />
        </mxCell>
        <mxCell id="zDsFSdaFNBFYvoVBr4y8-45" value="+ Draw(canvas: ICanvas&amp;amp;):" style="text;strokeColor=none;fillColor=none;align=left;verticalAlign=top;spacingLeft=4;spacingRight=4;overflow=hidden;rotatable=0;points=[[0,0.5],[1,0.5]];portConstraint=eastwest;whiteSpace=wrap;html=1;" parent="zDsFSdaFNBFYvoVBr4y8-44" vertex="1">
          <mxGeometry y="26" width="260" height="26" as="geometry" />
        </mxCell>
        <mxCell id="zDsFSdaFNBFYvoVBr4y8-46" value="+&amp;nbsp;RemoveShape(size_t idx)" style="text;strokeColor=none;fillColor=none;align=left;verticalAlign=top;spacingLeft=4;spacingRight=4;overflow=hidden;rotatable=0;points=[[0,0.5],[1,0.5]];portConstraint=eastwest;whiteSpace=wrap;html=1;" parent="zDsFSdaFNBFYvoVBr4y8-44" vertex="1">
          <mxGeometry y="52" width="260" height="26" as="geometry" />
        </mxCell>
        <mxCell id="zDsFSdaFNBFYvoVBr4y8-47" value="+ AddShape(shape : IShapePtr)" style="text;strokeColor=none;fillColor=none;align=left;verticalAlign=top;spacingLeft=4;spacingRight=4;overflow=hidden;rotatable=0;points=[[0,0.5],[1,0.5]];portConstraint=eastwest;whiteSpace=wrap;html=1;" parent="zDsFSdaFNBFYvoVBr4y8-44" vertex="1">
          <mxGeometry y="78" width="260" height="26" as="geometry" />
        </mxCell>
        <mxCell id="zDsFSdaFNBFYvoVBr4y8-48" value="+ GetShape(size_t idx) : IShapedPtr&amp;amp;" style="text;strokeColor=none;fillColor=none;align=left;verticalAlign=top;spacingLeft=4;spacingRight=4;overflow=hidden;rotatable=0;points=[[0,0.5],[1,0.5]];portConstraint=eastwest;whiteSpace=wrap;html=1;" parent="zDsFSdaFNBFYvoVBr4y8-44" vertex="1">
          <mxGeometry y="104" width="260" height="26" as="geometry" />
        </mxCell>
        <mxCell id="zDsFSdaFNBFYvoVBr4y8-50" value="+ GetShape(size_t idx) : const IShapedPtr&amp;amp;" style="text;strokeColor=none;fillColor=none;align=left;verticalAlign=top;spacingLeft=4;spacingRight=4;overflow=hidden;rotatable=0;points=[[0,0.5],[1,0.5]];portConstraint=eastwest;whiteSpace=wrap;html=1;" parent="zDsFSdaFNBFYvoVBr4y8-44" vertex="1">
          <mxGeometry y="130" width="260" height="26" as="geometry" />
        </mxCell>
        <mxCell id="zDsFSdaFNBFYvoVBr4y8-51" value="+ GetShapesCount() : size_t&amp;nbsp;" style="text;strokeColor=none;fillColor=none;align=left;verticalAlign=top;spacingLeft=4;spacingRight=4;overflow=hidden;rotatable=0;points=[[0,0.5],[1,0.5]];portConstraint=eastwest;whiteSpace=wrap;html=1;" parent="zDsFSdaFNBFYvoVBr4y8-44" vertex="1">
          <mxGeometry y="156" width="260" height="26" as="geometry" />
        </mxCell>
        <mxCell id="zDsFSdaFNBFYvoVBr4y8-52" value="+&amp;nbsp;CheckAvailabilityOfShape(size_t idx)" style="text;strokeColor=none;fillColor=none;align=left;verticalAlign=top;spacingLeft=4;spacingRight=4;overflow=hidden;rotatable=0;points=[[0,0.5],[1,0.5]];portConstraint=eastwest;whiteSpace=wrap;html=1;" parent="zDsFSdaFNBFYvoVBr4y8-44" vertex="1">
          <mxGeometry y="182" width="260" height="26" as="geometry" />
        </mxCell>
        <mxCell id="zDsFSdaFNBFYvoVBr4y8-53" value="+&amp;nbsp;GroupShapes(shapesIdxWithPosesInsertions: vector&amp;lt;std::pair&amp;lt;size_t, size_t&amp;gt;&amp;gt;)" style="text;strokeColor=none;fillColor=none;align=left;verticalAlign=top;spacingLeft=4;spacingRight=4;overflow=hidden;rotatable=0;points=[[0,0.5],[1,0.5]];portConstraint=eastwest;whiteSpace=wrap;html=1;" parent="zDsFSdaFNBFYvoVBr4y8-44" vertex="1">
          <mxGeometry y="208" width="260" height="42" as="geometry" />
        </mxCell>
        <mxCell id="zDsFSdaFNBFYvoVBr4y8-49" value="-&amp;nbsp;m_shapes:&amp;nbsp;vector&amp;lt;IShapePtr&amp;gt;" style="text;strokeColor=none;fillColor=none;align=left;verticalAlign=top;spacingLeft=4;spacingRight=4;overflow=hidden;rotatable=0;points=[[0,0.5],[1,0.5]];portConstraint=eastwest;whiteSpace=wrap;html=1;" parent="zDsFSdaFNBFYvoVBr4y8-44" vertex="1">
          <mxGeometry y="250" width="260" height="30" as="geometry" />
        </mxCell>
        <mxCell id="zDsFSdaFNBFYvoVBr4y8-55" value="" style="endArrow=diamondThin;endFill=1;endSize=24;html=1;rounded=0;exitX=0.25;exitY=0;exitDx=0;exitDy=0;entryX=0.555;entryY=1.1;entryDx=0;entryDy=0;entryPerimeter=0;" parent="1" source="zDsFSdaFNBFYvoVBr4y8-3" target="zDsFSdaFNBFYvoVBr4y8-49" edge="1">
          <mxGeometry width="160" relative="1" as="geometry">
            <mxPoint y="110" as="sourcePoint" />
            <mxPoint x="130" y="50" as="targetPoint" />
          </mxGeometry>
        </mxCell>
        <mxCell id="zDsFSdaFNBFYvoVBr4y8-56" value="Rect&amp;lt;T&amp;gt;" style="swimlane;fontStyle=0;childLayout=stackLayout;horizontal=1;startSize=26;fillColor=none;horizontalStack=0;resizeParent=1;resizeParentMax=0;resizeLast=0;collapsible=1;marginBottom=0;whiteSpace=wrap;html=1;" parent="1" vertex="1">
          <mxGeometry x="319" y="-200" width="140" height="182" as="geometry" />
        </mxCell>
        <mxCell id="zDsFSdaFNBFYvoVBr4y8-57" value="- leftPoint: Point&amp;lt;T&amp;gt;" style="text;strokeColor=none;fillColor=none;align=left;verticalAlign=top;spacingLeft=4;spacingRight=4;overflow=hidden;rotatable=0;points=[[0,0.5],[1,0.5]];portConstraint=eastwest;whiteSpace=wrap;html=1;" parent="zDsFSdaFNBFYvoVBr4y8-56" vertex="1">
          <mxGeometry y="26" width="140" height="26" as="geometry" />
        </mxCell>
        <mxCell id="zDsFSdaFNBFYvoVBr4y8-58" value="- width: T" style="text;strokeColor=none;fillColor=none;align=left;verticalAlign=top;spacingLeft=4;spacingRight=4;overflow=hidden;rotatable=0;points=[[0,0.5],[1,0.5]];portConstraint=eastwest;whiteSpace=wrap;html=1;" parent="zDsFSdaFNBFYvoVBr4y8-56" vertex="1">
          <mxGeometry y="52" width="140" height="26" as="geometry" />
        </mxCell>
        <mxCell id="zDsFSdaFNBFYvoVBr4y8-59" value="- height: T" style="text;strokeColor=none;fillColor=none;align=left;verticalAlign=top;spacingLeft=4;spacingRight=4;overflow=hidden;rotatable=0;points=[[0,0.5],[1,0.5]];portConstraint=eastwest;whiteSpace=wrap;html=1;" parent="zDsFSdaFNBFYvoVBr4y8-56" vertex="1">
          <mxGeometry y="78" width="140" height="26" as="geometry" />
        </mxCell>
        <mxCell id="zDsFSdaFNBFYvoVBr4y8-60" value="PointD = Point&amp;lt;double&amp;gt;" style="text;strokeColor=none;fillColor=none;align=left;verticalAlign=top;spacingLeft=4;spacingRight=4;overflow=hidden;rotatable=0;points=[[0,0.5],[1,0.5]];portConstraint=eastwest;whiteSpace=wrap;html=1;" parent="zDsFSdaFNBFYvoVBr4y8-56" vertex="1">
          <mxGeometry y="104" width="140" height="26" as="geometry" />
        </mxCell>
        <mxCell id="zDsFSdaFNBFYvoVBr4y8-74" value="RectD = Rect&amp;lt;double&amp;gt;" style="text;strokeColor=none;fillColor=none;align=left;verticalAlign=top;spacingLeft=4;spacingRight=4;overflow=hidden;rotatable=0;points=[[0,0.5],[1,0.5]];portConstraint=eastwest;whiteSpace=wrap;html=1;" parent="zDsFSdaFNBFYvoVBr4y8-56" vertex="1">
          <mxGeometry y="130" width="140" height="26" as="geometry" />
        </mxCell>
        <mxCell id="zDsFSdaFNBFYvoVBr4y8-61" value="RGBAColor = uint64_t" style="text;strokeColor=none;fillColor=none;align=left;verticalAlign=top;spacingLeft=4;spacingRight=4;overflow=hidden;rotatable=0;points=[[0,0.5],[1,0.5]];portConstraint=eastwest;whiteSpace=wrap;html=1;" parent="zDsFSdaFNBFYvoVBr4y8-56" vertex="1">
          <mxGeometry y="156" width="140" height="26" as="geometry" />
        </mxCell>
        <mxCell id="zDsFSdaFNBFYvoVBr4y8-62" value="Use" style="endArrow=open;endSize=12;dashed=1;html=1;rounded=0;entryX=0;entryY=0.5;entryDx=0;entryDy=0;exitX=0.344;exitY=-0.02;exitDx=0;exitDy=0;exitPerimeter=0;edgeStyle=orthogonalEdgeStyle;" parent="1" source="zDsFSdaFNBFYvoVBr4y8-3" target="zDsFSdaFNBFYvoVBr4y8-59" edge="1">
          <mxGeometry width="160" relative="1" as="geometry">
            <mxPoint x="160" y="140" as="sourcePoint" />
            <mxPoint x="320" y="140" as="targetPoint" />
            <Array as="points">
              <mxPoint x="196" y="100" />
              <mxPoint x="250" y="100" />
              <mxPoint x="250" y="-109" />
            </Array>
          </mxGeometry>
        </mxCell>
        <mxCell id="zDsFSdaFNBFYvoVBr4y8-63" value="" style="endArrow=diamondThin;endFill=1;endSize=24;html=1;rounded=0;entryX=0.633;entryY=0.001;entryDx=0;entryDy=0;entryPerimeter=0;exitX=0.364;exitY=0.008;exitDx=0;exitDy=0;edgeStyle=orthogonalEdgeStyle;exitPerimeter=0;" parent="1" source="zDsFSdaFNBFYvoVBr4y8-56" target="zDsFSdaFNBFYvoVBr4y8-4" edge="1">
          <mxGeometry width="160" relative="1" as="geometry">
            <mxPoint x="60" y="300" as="sourcePoint" />
            <mxPoint x="220" y="300" as="targetPoint" />
            <Array as="points">
              <mxPoint x="370" y="-300" />
              <mxPoint x="-150" y="-300" />
              <mxPoint x="-150" y="160" />
              <mxPoint x="-106" y="160" />
            </Array>
          </mxGeometry>
        </mxCell>
        <mxCell id="zDsFSdaFNBFYvoVBr4y8-64" value="" style="endArrow=diamondThin;endFill=1;endSize=24;html=1;rounded=0;exitX=1;exitY=0.5;exitDx=0;exitDy=0;edgeStyle=orthogonalEdgeStyle;" parent="1" source="zDsFSdaFNBFYvoVBr4y8-61" target="zDsFSdaFNBFYvoVBr4y8-16" edge="1">
          <mxGeometry width="160" relative="1" as="geometry">
            <mxPoint x="329" y="-47" as="sourcePoint" />
            <mxPoint x="-96" y="210" as="targetPoint" />
            <Array as="points">
              <mxPoint x="530" y="-57" />
            </Array>
          </mxGeometry>
        </mxCell>
        <mxCell id="zDsFSdaFNBFYvoVBr4y8-66" value="" style="endArrow=block;dashed=1;endFill=0;endSize=12;html=1;rounded=0;entryX=0.152;entryY=-0.031;entryDx=0;entryDy=0;exitX=1.008;exitY=0.048;exitDx=0;exitDy=0;exitPerimeter=0;entryPerimeter=0;" parent="1" source="zDsFSdaFNBFYvoVBr4y8-51" target="zDsFSdaFNBFYvoVBr4y8-1" edge="1">
          <mxGeometry width="160" relative="1" as="geometry">
            <mxPoint x="370" y="80" as="sourcePoint" />
            <mxPoint x="530" y="80" as="targetPoint" />
          </mxGeometry>
        </mxCell>
        <mxCell id="zDsFSdaFNBFYvoVBr4y8-67" value="Point&amp;lt;T&amp;gt;" style="swimlane;fontStyle=0;childLayout=stackLayout;horizontal=1;startSize=26;fillColor=none;horizontalStack=0;resizeParent=1;resizeParentMax=0;resizeLast=0;collapsible=1;marginBottom=0;whiteSpace=wrap;html=1;" parent="1" vertex="1">
          <mxGeometry x="590" y="-220" width="140" height="78" as="geometry" />
        </mxCell>
        <mxCell id="zDsFSdaFNBFYvoVBr4y8-68" value="+ x: T" style="text;strokeColor=none;fillColor=none;align=left;verticalAlign=top;spacingLeft=4;spacingRight=4;overflow=hidden;rotatable=0;points=[[0,0.5],[1,0.5]];portConstraint=eastwest;whiteSpace=wrap;html=1;" parent="zDsFSdaFNBFYvoVBr4y8-67" vertex="1">
          <mxGeometry y="26" width="140" height="26" as="geometry" />
        </mxCell>
        <mxCell id="zDsFSdaFNBFYvoVBr4y8-69" value="+ y : T" style="text;strokeColor=none;fillColor=none;align=left;verticalAlign=top;spacingLeft=4;spacingRight=4;overflow=hidden;rotatable=0;points=[[0,0.5],[1,0.5]];portConstraint=eastwest;whiteSpace=wrap;html=1;" parent="zDsFSdaFNBFYvoVBr4y8-67" vertex="1">
          <mxGeometry y="52" width="140" height="26" as="geometry" />
        </mxCell>
        <mxCell id="zDsFSdaFNBFYvoVBr4y8-71" value="" style="endArrow=diamondThin;endFill=1;endSize=24;html=1;rounded=0;entryX=1.036;entryY=-0.221;entryDx=0;entryDy=0;entryPerimeter=0;exitX=0;exitY=-0.144;exitDx=0;exitDy=0;exitPerimeter=0;" parent="1" source="zDsFSdaFNBFYvoVBr4y8-69" target="zDsFSdaFNBFYvoVBr4y8-59" edge="1">
          <mxGeometry width="160" relative="1" as="geometry">
            <mxPoint x="370" y="80" as="sourcePoint" />
            <mxPoint x="530" y="80" as="targetPoint" />
          </mxGeometry>
        </mxCell>
        <mxCell id="zDsFSdaFNBFYvoVBr4y8-72" value="Use" style="endArrow=open;endSize=12;dashed=1;html=1;rounded=0;entryX=0.487;entryY=0.931;entryDx=0;entryDy=0;entryPerimeter=0;exitX=0.207;exitY=0.016;exitDx=0;exitDy=0;exitPerimeter=0;" parent="1" source="zDsFSdaFNBFYvoVBr4y8-37" target="zDsFSdaFNBFYvoVBr4y8-69" edge="1">
          <mxGeometry width="160" relative="1" as="geometry">
            <mxPoint x="650" y="-30" as="sourcePoint" />
            <mxPoint x="830" y="220" as="targetPoint" />
          </mxGeometry>
        </mxCell>
        <mxCell id="zDsFSdaFNBFYvoVBr4y8-73" value="" style="endArrow=diamondThin;endFill=1;endSize=24;html=1;rounded=0;entryX=1;entryY=0.5;entryDx=0;entryDy=0;exitX=1;exitY=0.5;exitDx=0;exitDy=0;edgeStyle=orthogonalEdgeStyle;" parent="1" source="zDsFSdaFNBFYvoVBr4y8-68" target="zDsFSdaFNBFYvoVBr4y8-39" edge="1">
          <mxGeometry width="160" relative="1" as="geometry">
            <mxPoint x="760" y="-181" as="sourcePoint" />
            <mxPoint x="1110" y="490" as="targetPoint" />
            <Array as="points">
              <mxPoint x="1090" y="-181" />
              <mxPoint x="1090" y="500" />
              <mxPoint x="1080" y="500" />
            </Array>
          </mxGeometry>
        </mxCell>
        <mxCell id="LTNFidTSg1RJ14vH2Cxi-2" value="Приватные метды -" style="html=1;whiteSpace=wrap;fillColor=#f8cecc;strokeColor=#b85450;" vertex="1" parent="1">
          <mxGeometry x="440" y="940" width="110" height="50" as="geometry" />
        </mxCell>
        <mxCell id="LTNFidTSg1RJ14vH2Cxi-3" value="Шруппа содержащая пустые группы не корректо просчитает frame" style="html=1;whiteSpace=wrap;fillColor=#f8cecc;strokeColor=#b85450;" vertex="1" parent="1">
          <mxGeometry x="570" y="630" width="110" height="50" as="geometry" />
        </mxCell>
      </root>
    </mxGraphModel>
  </diagram>
</mxfile>
